<svg xmlns="http://www.w3.org/2000/svg" viewBox="0 0 1200 760" role="img" aria-labelledby="title desc">
  <title id="title">HPC workflow placeholder</title>
  <desc id="desc">Abstract high-performance computing workflow with nodes and atmospheric contours.</desc>
  <rect width="1200" height="760" fill="#102033" />
  <g stroke="#dbeff5" stroke-opacity="0.18" stroke-width="1">
    <path d="M0 126H1200M0 252H1200M0 378H1200M0 504H1200M0 630H1200" />
    <path d="M150 0V760M300 0V760M450 0V760M600 0V760M750 0V760M900 0V760M1050 0V760" />
  </g>
  <g fill="#dbeff5">
    <circle cx="270" cy="260" r="28" />
    <circle cx="478" cy="358" r="28" />
    <circle cx="708" cy="280" r="28" />
    <circle cx="920" cy="452" r="28" />
  </g>
  <g stroke="#dbeff5" stroke-width="8" stroke-opacity="0.62" fill="none">
    <path d="M298 272l152 72M506 350l174-58M732 304l164 130" />
  </g>
  <path d="M78 572C268 444 418 622 596 480s324-200 526-100" fill="none" stroke="#c26b18" stroke-width="18" stroke-linecap="round" />
  <path d="M78 628C270 508 426 668 598 548s326-140 526-96" fill="none" stroke="#7fb3c2" stroke-width="18" stroke-linecap="round" opacity="0.8" />
</svg>
