<svg xmlns="http://www.w3.org/2000/svg" viewBox="0 0 1200 760" role="img" aria-labelledby="title desc">
  <title id="title">Model grid placeholder</title>
  <desc id="desc">Abstract numerical model grid with colored atmospheric contours.</desc>
  <defs>
    <linearGradient id="bg" x1="0" y1="0" x2="1" y2="1">
      <stop offset="0" stop-color="#f8fbfc" />
      <stop offset="1" stop-color="#c9e2e8" />
    </linearGradient>
  </defs>
  <rect width="1200" height="760" fill="url(#bg)" />
  <g stroke="#7da5af" stroke-opacity="0.35" stroke-width="1">
    <path d="M0 130H1200M0 250H1200M0 370H1200M0 490H1200M0 610H1200" />
    <path d="M160 0V760M320 0V760M480 0V760M640 0V760M800 0V760M960 0V760" />
  </g>
  <g fill="none" stroke-linecap="round" stroke-width="14">
    <path d="M86 486C218 310 370 604 516 392s332-164 596-34" stroke="#006d77" />
    <path d="M112 560C272 420 398 640 566 482s332-120 520-76" stroke="#2f6f4e" opacity="0.82" />
    <path d="M180 284C342 196 468 376 648 260s286-96 406-50" stroke="#c26b18" opacity="0.76" />
  </g>
  <circle cx="864" cy="248" r="82" fill="#ffffff" fill-opacity="0.5" />
</svg>
